<svg width="32" height="32" viewBox="0 0 32 32" fill="none" xmlns="http://www.w3.org/2000/svg">
<path d="M30.3557 4V6.85141C25.6033 9.70282 20.851 10.0196 16.2571 10.3365C11.3463 10.6533 6.67315 10.9701 2 14.2968V11.4454C6.75235 8.59394 11.5047 8.27712 16.0986 7.96029C21.0094 7.64347 25.6826 7.32665 30.3557 4Z" fill="#18191A"/>
<path d="M30.3557 8.59473V11.4461C25.6033 14.2976 20.851 14.6144 16.2571 14.9312C11.3463 15.248 6.67315 15.5648 2 18.8915V16.0401C6.75235 13.1887 11.5047 12.8718 16.0986 12.555C21.0094 12.2382 25.6826 11.9214 30.3557 8.59473Z" fill="#18191A"/>
<path d="M30.3557 13.1094V15.9608C25.6033 18.8122 20.851 19.129 16.2571 19.4458C11.3463 19.7627 6.67315 20.0795 2 23.4061V20.5547C6.75235 17.7033 11.5047 17.3865 16.0986 17.0697C21.0094 16.7528 25.6826 16.436 30.3557 13.1094Z" fill="#18191A"/>
<path d="M30.3557 17.7031V20.5545C25.6033 23.4059 20.851 23.7228 16.2571 24.0396C11.3463 24.3564 6.67315 24.6732 2 27.9999V25.1485C6.75235 22.2971 11.5047 21.9802 16.0986 21.6634C21.0094 21.3466 25.6826 21.0298 30.3557 17.7031Z" fill="#18191A"/>
</svg>
